<svg width="150" height="27" viewBox="0 0 150 27" fill="none" xmlns="http://www.w3.org/2000/svg">
<path d="M8.208 7.872C8.768 7.872 9.2 7.96 9.504 8.136C9.792 8.296 9.984 8.504 10.08 8.76C10.176 9.016 10.192 9.312 10.128 9.648C10.048 10.096 9.864 10.448 9.576 10.704C9.304 10.944 8.984 11.024 8.616 10.944C8.408 10.912 8.208 10.872 8.016 10.824C7.824 10.776 7.624 10.752 7.416 10.752C7.048 10.752 6.704 10.824 6.384 10.968C6.08 11.112 5.808 11.312 5.568 11.568C5.344 11.808 5.16 12.104 5.016 12.456C4.888 12.792 4.824 13.16 4.824 13.56V19.776C4.824 20.208 4.672 20.528 4.368 20.736C4.064 20.944 3.712 21.048 3.312 21.048C2.928 21.048 2.576 20.944 2.256 20.736C1.952 20.528 1.8 20.208 1.8 19.776V9.24C1.8 8.824 1.944 8.52 2.232 8.328C2.536 8.12 2.872 8.016 3.24 8.016C3.624 8.016 3.96 8.12 4.248 8.328C4.552 8.52 4.704 8.824 4.704 9.24V10.08H4.752C5.088 9.408 5.56 8.872 6.168 8.472C6.776 8.072 7.456 7.872 8.208 7.872ZM17.08 10.368C16.072 10.368 15.312 10.632 14.8 11.16C14.304 11.688 14.056 12.36 14.056 13.176V13.344H20.008V13.104C20.008 12.32 19.784 11.672 19.336 11.16C18.888 10.632 18.136 10.368 17.08 10.368ZM17.128 7.872C17.992 7.872 18.776 8 19.48 8.256C20.184 8.512 20.792 8.88 21.304 9.36C21.816 9.84 22.208 10.432 22.48 11.136C22.768 11.84 22.912 12.648 22.912 13.56V13.608C22.912 14.36 22.76 14.88 22.456 15.168C22.168 15.456 21.64 15.6 20.872 15.6H14.056V15.648C14.056 16.512 14.32 17.216 14.848 17.76C15.392 18.304 16.2 18.576 17.272 18.576C17.944 18.576 18.528 18.528 19.024 18.432C19.536 18.32 20.056 18.144 20.584 17.904C20.904 17.76 21.216 17.744 21.52 17.856C21.824 17.952 22.048 18.168 22.192 18.504C22.336 18.84 22.368 19.168 22.288 19.488C22.208 19.792 22.008 20.024 21.688 20.184C21.08 20.488 20.416 20.72 19.696 20.88C18.976 21.024 18.128 21.096 17.152 21.096C15.232 21.096 13.744 20.576 12.688 19.536C11.632 18.48 11.104 16.904 11.104 14.808V14.184C11.104 12.104 11.64 10.536 12.712 9.48C13.784 8.408 15.256 7.872 17.128 7.872ZM24.9568 8.16C25.1488 8.096 25.3408 8.056 25.5328 8.04C25.7248 8.024 25.9088 8.04 26.0848 8.088C26.2768 8.136 26.4448 8.224 26.5888 8.352C26.7328 8.48 26.8448 8.664 26.9248 8.904L29.9488 17.808H29.9728L32.9968 8.904C33.0768 8.664 33.1808 8.48 33.3088 8.352C33.4528 8.224 33.6128 8.136 33.7888 8.088C33.9648 8.04 34.1488 8.024 34.3408 8.04C34.5328 8.056 34.7248 8.096 34.9168 8.16C35.2848 8.288 35.5568 8.512 35.7328 8.832C35.9248 9.136 35.9328 9.504 35.7568 9.936L32.1328 19.44C31.8928 20.064 31.5728 20.488 31.1728 20.712C30.7888 20.936 30.3648 21.048 29.9008 21.048C29.4368 21.048 29.0048 20.936 28.6048 20.712C28.2208 20.488 27.9088 20.064 27.6688 19.44L24.0448 9.936C23.8688 9.504 23.8848 9.136 24.0928 8.832C24.3008 8.512 24.5888 8.288 24.9568 8.16ZM42.9159 10.368C41.9079 10.368 41.1479 10.632 40.6359 11.16C40.1399 11.688 39.8919 12.36 39.8919 13.176V13.344H45.8439V13.104C45.8439 12.32 45.6199 11.672 45.1719 11.16C44.7239 10.632 43.9719 10.368 42.9159 10.368ZM42.9639 7.872C43.8279 7.872 44.6119 8 45.3159 8.256C46.0199 8.512 46.6279 8.88 47.1399 9.36C47.6519 9.84 48.0439 10.432 48.3159 11.136C48.6039 11.84 48.7479 12.648 48.7479 13.56V13.608C48.7479 14.36 48.5959 14.88 48.2919 15.168C48.0039 15.456 47.4759 15.6 46.7079 15.6H39.8919V15.648C39.8919 16.512 40.1559 17.216 40.6839 17.76C41.2279 18.304 42.0359 18.576 43.1079 18.576C43.7799 18.576 44.3639 18.528 44.8599 18.432C45.3719 18.32 45.8919 18.144 46.4199 17.904C46.7399 17.76 47.0519 17.744 47.3559 17.856C47.6599 17.952 47.8839 18.168 48.0279 18.504C48.1719 18.84 48.2039 19.168 48.1239 19.488C48.0439 19.792 47.8439 20.024 47.5239 20.184C46.9159 20.488 46.2519 20.72 45.5319 20.88C44.8119 21.024 43.9639 21.096 42.9879 21.096C41.0679 21.096 39.5799 20.576 38.5239 19.536C37.4679 18.48 36.9399 16.904 36.9399 14.808V14.184C36.9399 12.104 37.4759 10.536 38.5479 9.48C39.6199 8.408 41.0919 7.872 42.9639 7.872ZM57.5127 7.872C58.0727 7.872 58.5047 7.96 58.8087 8.136C59.0967 8.296 59.2887 8.504 59.3847 8.76C59.4807 9.016 59.4967 9.312 59.4327 9.648C59.3527 10.096 59.1687 10.448 58.8807 10.704C58.6087 10.944 58.2887 11.024 57.9207 10.944C57.7127 10.912 57.5127 10.872 57.3207 10.824C57.1287 10.776 56.9287 10.752 56.7207 10.752C56.3527 10.752 56.0087 10.824 55.6887 10.968C55.3847 11.112 55.1127 11.312 54.8727 11.568C54.6487 11.808 54.4647 12.104 54.3207 12.456C54.1927 12.792 54.1287 13.16 54.1287 13.56V19.776C54.1287 20.208 53.9767 20.528 53.6727 20.736C53.3687 20.944 53.0167 21.048 52.6167 21.048C52.2327 21.048 51.8807 20.944 51.5607 20.736C51.2567 20.528 51.1047 20.208 51.1047 19.776V9.24C51.1047 8.824 51.2487 8.52 51.5367 8.328C51.8407 8.12 52.1767 8.016 52.5447 8.016C52.9287 8.016 53.2647 8.12 53.5527 8.328C53.8567 8.52 54.0087 8.824 54.0087 9.24V10.08H54.0567C54.3927 9.408 54.8647 8.872 55.4727 8.472C56.0807 8.072 56.7607 7.872 57.5127 7.872ZM65.7099 7.872C67.2939 7.872 68.5419 8.12 69.4539 8.616C69.8539 8.84 70.1019 9.104 70.1979 9.408C70.2939 9.712 70.2539 10.048 70.0779 10.416C69.9339 10.72 69.7259 10.928 69.4539 11.04C69.1819 11.136 68.8699 11.104 68.5179 10.944C68.1499 10.768 67.7419 10.632 67.2939 10.536C66.8619 10.44 66.4459 10.392 66.0459 10.392C65.1339 10.392 64.5019 10.504 64.1499 10.728C63.7979 10.952 63.6219 11.216 63.6219 11.52V11.568C63.6219 11.76 63.6459 11.928 63.6939 12.072C63.7419 12.2 63.8459 12.32 64.0059 12.432C64.1819 12.528 64.4299 12.624 64.7499 12.72C65.0699 12.8 65.5099 12.896 66.0699 13.008C67.0299 13.2 67.8219 13.416 68.4459 13.656C69.0699 13.88 69.5659 14.152 69.9339 14.472C70.3019 14.792 70.5579 15.176 70.7019 15.624C70.8459 16.056 70.9179 16.576 70.9179 17.184V17.28C70.9179 17.824 70.7899 18.328 70.5339 18.792C70.2939 19.256 69.9419 19.664 69.4779 20.016C69.0299 20.352 68.4779 20.616 67.8219 20.808C67.1819 21 66.4619 21.096 65.6619 21.096C64.7179 21.096 63.8459 21 63.0459 20.808C62.2459 20.616 61.5419 20.352 60.9339 20.016C60.5979 19.84 60.3979 19.584 60.3339 19.248C60.2699 18.896 60.3179 18.56 60.4779 18.24C60.6539 17.904 60.8939 17.68 61.1979 17.568C61.5019 17.456 61.8299 17.488 62.1819 17.664C62.6939 17.936 63.2459 18.152 63.8379 18.312C64.4459 18.472 65.0459 18.552 65.6379 18.552C66.4699 18.552 67.0459 18.432 67.3659 18.192C67.6859 17.952 67.8459 17.648 67.8459 17.28V17.232C67.8459 17.04 67.8219 16.872 67.7739 16.728C67.7259 16.584 67.6059 16.456 67.4139 16.344C67.2219 16.232 66.9419 16.128 66.5739 16.032C66.2059 15.936 65.7099 15.824 65.0859 15.696C64.2379 15.536 63.5259 15.344 62.9499 15.12C62.3899 14.896 61.9339 14.624 61.5819 14.304C61.2299 13.968 60.9739 13.584 60.8139 13.152C60.6699 12.704 60.5979 12.192 60.5979 11.616V11.52C60.5979 11.04 60.7019 10.584 60.9099 10.152C61.1179 9.704 61.4299 9.312 61.8459 8.976C62.2779 8.64 62.8139 8.376 63.4539 8.184C64.0939 7.976 64.8459 7.872 65.7099 7.872ZM78.3066 10.368C77.2986 10.368 76.5386 10.632 76.0266 11.16C75.5306 11.688 75.2826 12.36 75.2826 13.176V13.344H81.2346V13.104C81.2346 12.32 81.0106 11.672 80.5626 11.16C80.1146 10.632 79.3626 10.368 78.3066 10.368ZM78.3546 7.872C79.2186 7.872 80.0026 8 80.7066 8.256C81.4106 8.512 82.0186 8.88 82.5306 9.36C83.0426 9.84 83.4346 10.432 83.7066 11.136C83.9946 11.84 84.1386 12.648 84.1386 13.56V13.608C84.1386 14.36 83.9866 14.88 83.6826 15.168C83.3946 15.456 82.8666 15.6 82.0986 15.6H75.2826V15.648C75.2826 16.512 75.5466 17.216 76.0746 17.76C76.6186 18.304 77.4266 18.576 78.4986 18.576C79.1706 18.576 79.7546 18.528 80.2506 18.432C80.7626 18.32 81.2826 18.144 81.8106 17.904C82.1306 17.76 82.4426 17.744 82.7466 17.856C83.0506 17.952 83.2746 18.168 83.4186 18.504C83.5626 18.84 83.5946 19.168 83.5146 19.488C83.4346 19.792 83.2346 20.024 82.9146 20.184C82.3066 20.488 81.6426 20.72 80.9226 20.88C80.2026 21.024 79.3546 21.096 78.3786 21.096C76.4586 21.096 74.9706 20.576 73.9146 19.536C72.8586 18.48 72.3306 16.904 72.3306 14.808V14.184C72.3306 12.104 72.8666 10.536 73.9386 9.48C75.0106 8.408 76.4826 7.872 78.3546 7.872ZM91.0793 7.872C91.5913 7.872 92.0473 7.92 92.4473 8.016C92.8473 8.112 93.1913 8.232 93.4793 8.376C93.7833 8.52 94.0313 8.68 94.2233 8.856C94.4153 9.016 94.5593 9.168 94.6553 9.312H94.6793V9.24C94.6793 8.824 94.8233 8.52 95.1113 8.328C95.4153 8.12 95.7593 8.016 96.1433 8.016C96.5113 8.016 96.8393 8.12 97.1273 8.328C97.4313 8.52 97.5833 8.824 97.5833 9.24V20.544C97.5833 22.384 97.0793 23.752 96.0713 24.648C95.0633 25.56 93.4713 26.016 91.2953 26.016C90.5913 26.016 89.9033 25.92 89.2313 25.728C88.5593 25.552 87.9993 25.336 87.5513 25.08C87.2313 24.904 87.0473 24.632 86.9993 24.264C86.9513 23.912 87.0153 23.584 87.1913 23.28C87.3833 22.944 87.6153 22.72 87.8873 22.608C88.1593 22.496 88.4793 22.528 88.8473 22.704C89.1673 22.88 89.5513 23.04 89.9993 23.184C90.4633 23.328 90.9113 23.4 91.3433 23.4C92.4153 23.4 93.2233 23.176 93.7673 22.728C94.3273 22.28 94.6073 21.544 94.6073 20.52V19.032H94.5593C94.2073 19.672 93.7033 20.12 93.0473 20.376C92.3913 20.632 91.6633 20.76 90.8633 20.76C89.1833 20.76 87.9113 20.232 87.0473 19.176C86.1993 18.12 85.7753 16.584 85.7753 14.568V14.088C85.7753 12.04 86.2553 10.496 87.2153 9.456C88.1913 8.4 89.4793 7.872 91.0793 7.872ZM91.5833 10.464C90.6233 10.464 89.9113 10.784 89.4473 11.424C88.9993 12.048 88.7753 12.96 88.7753 14.16V14.496C88.7753 15.744 88.9833 16.672 89.3993 17.28C89.8313 17.888 90.5193 18.192 91.4633 18.192C91.9593 18.192 92.3993 18.112 92.7833 17.952C93.1833 17.776 93.5113 17.544 93.7673 17.256C94.0393 16.952 94.2473 16.608 94.3913 16.224C94.5353 15.824 94.6073 15.4 94.6073 14.952V13.08C94.6073 12.776 94.5433 12.472 94.4153 12.168C94.3033 11.848 94.1193 11.568 93.8633 11.328C93.6233 11.072 93.3113 10.864 92.9273 10.704C92.5593 10.544 92.1113 10.464 91.5833 10.464ZM102.083 8.016C102.467 8.016 102.811 8.12 103.115 8.328C103.435 8.536 103.595 8.856 103.595 9.288V15.576C103.595 16.152 103.659 16.632 103.787 17.016C103.915 17.384 104.091 17.68 104.315 17.904C104.539 18.112 104.803 18.264 105.107 18.36C105.411 18.44 105.739 18.48 106.091 18.48C106.395 18.48 106.707 18.432 107.027 18.336C107.363 18.24 107.667 18.072 107.939 17.832C108.211 17.592 108.435 17.272 108.611 16.872C108.803 16.472 108.899 15.976 108.899 15.384V9.288C108.899 8.856 109.051 8.536 109.355 8.328C109.659 8.12 110.011 8.016 110.411 8.016C110.795 8.016 111.139 8.12 111.443 8.328C111.763 8.536 111.923 8.856 111.923 9.288V19.824C111.923 20.24 111.771 20.552 111.467 20.76C111.179 20.952 110.851 21.048 110.483 21.048C110.115 21.048 109.779 20.952 109.475 20.76C109.187 20.552 109.043 20.24 109.043 19.824V19.32H108.995C108.803 19.64 108.563 19.912 108.275 20.136C107.987 20.36 107.667 20.544 107.315 20.688C106.979 20.832 106.619 20.936 106.235 21C105.867 21.08 105.507 21.12 105.155 21.12C103.763 21.12 102.651 20.712 101.819 19.896C100.987 19.064 100.571 17.84 100.571 16.224V9.288C100.571 8.856 100.723 8.536 101.027 8.328C101.331 8.12 101.683 8.016 102.083 8.016ZM116.611 8.016C117.011 8.016 117.363 8.12 117.667 8.328C117.971 8.536 118.123 8.856 118.123 9.288V19.776C118.123 20.208 117.971 20.528 117.667 20.736C117.363 20.944 117.011 21.048 116.611 21.048C116.227 21.048 115.875 20.944 115.555 20.736C115.251 20.528 115.099 20.208 115.099 19.776V9.288C115.099 8.856 115.251 8.536 115.555 8.328C115.875 8.12 116.227 8.016 116.611 8.016ZM116.611 3.048C117.139 3.048 117.587 3.224 117.955 3.576C118.323 3.928 118.507 4.36 118.507 4.872C118.507 5.384 118.323 5.816 117.955 6.168C117.587 6.52 117.139 6.696 116.611 6.696C116.083 6.696 115.635 6.52 115.267 6.168C114.899 5.816 114.715 5.384 114.715 4.872C114.715 4.36 114.899 3.928 115.267 3.576C115.635 3.224 116.083 3.048 116.611 3.048ZM126.388 10.464C124.516 10.464 123.58 11.728 123.58 14.256V14.736C123.58 16.032 123.788 16.992 124.204 17.616C124.636 18.224 125.324 18.528 126.268 18.528C126.764 18.528 127.204 18.448 127.588 18.288C127.988 18.112 128.316 17.88 128.572 17.592C128.844 17.288 129.052 16.944 129.196 16.56C129.34 16.16 129.412 15.736 129.412 15.288V13.08C129.412 12.776 129.348 12.472 129.22 12.168C129.108 11.848 128.924 11.568 128.668 11.328C128.428 11.072 128.116 10.864 127.732 10.704C127.364 10.544 126.916 10.464 126.388 10.464ZM130.876 3.096C131.276 3.096 131.628 3.2 131.932 3.408C132.236 3.616 132.388 3.936 132.388 4.368V19.824C132.388 20.24 132.236 20.552 131.932 20.76C131.644 20.952 131.316 21.048 130.948 21.048C130.58 21.048 130.252 20.952 129.964 20.76C129.676 20.552 129.532 20.24 129.532 19.824V19.344H129.46C129.108 19.984 128.588 20.44 127.9 20.712C127.212 20.968 126.468 21.096 125.668 21.096C123.988 21.096 122.716 20.568 121.852 19.512C121.004 18.44 120.58 16.872 120.58 14.808V14.184C120.58 13.144 120.708 12.232 120.964 11.448C121.22 10.648 121.58 9.984 122.044 9.456C122.508 8.928 123.06 8.536 123.7 8.28C124.356 8.008 125.084 7.872 125.884 7.872C126.412 7.872 126.868 7.92 127.252 8.016C127.652 8.112 127.988 8.232 128.26 8.376C128.548 8.504 128.78 8.656 128.956 8.832C129.132 8.992 129.268 9.144 129.364 9.288V4.368C129.364 3.936 129.516 3.616 129.82 3.408C130.14 3.2 130.492 3.096 130.876 3.096ZM140.775 10.368C139.767 10.368 139.007 10.632 138.495 11.16C137.999 11.688 137.751 12.36 137.751 13.176V13.344H143.703V13.104C143.703 12.32 143.479 11.672 143.031 11.16C142.583 10.632 141.831 10.368 140.775 10.368ZM140.823 7.872C141.687 7.872 142.471 8 143.175 8.256C143.879 8.512 144.487 8.88 144.999 9.36C145.511 9.84 145.903 10.432 146.175 11.136C146.463 11.84 146.607 12.648 146.607 13.56V13.608C146.607 14.36 146.455 14.88 146.151 15.168C145.863 15.456 145.335 15.6 144.567 15.6H137.751V15.648C137.751 16.512 138.015 17.216 138.543 17.76C139.087 18.304 139.895 18.576 140.967 18.576C141.639 18.576 142.223 18.528 142.719 18.432C143.231 18.32 143.751 18.144 144.279 17.904C144.599 17.76 144.911 17.744 145.215 17.856C145.519 17.952 145.743 18.168 145.887 18.504C146.031 18.84 146.063 19.168 145.983 19.488C145.903 19.792 145.703 20.024 145.383 20.184C144.775 20.488 144.111 20.72 143.391 20.88C142.671 21.024 141.823 21.096 140.847 21.096C138.927 21.096 137.439 20.576 136.383 19.536C135.327 18.48 134.799 16.904 134.799 14.808V14.184C134.799 12.104 135.335 10.536 136.407 9.48C137.479 8.408 138.951 7.872 140.823 7.872Z" fill="#FB521C"/>
</svg>
