<svg width="150" height="24" viewBox="0 0 150 24" fill="none" xmlns="http://www.w3.org/2000/svg">
<path d="M7.208 4.872C7.768 4.872 8.2 4.96 8.504 5.136C8.792 5.296 8.984 5.504 9.08 5.76C9.176 6.016 9.192 6.312 9.128 6.648C9.048 7.096 8.864 7.448 8.576 7.704C8.304 7.944 7.984 8.024 7.616 7.944C7.408 7.912 7.208 7.872 7.016 7.824C6.824 7.776 6.624 7.752 6.416 7.752C6.048 7.752 5.704 7.824 5.384 7.968C5.08 8.112 4.808 8.312 4.568 8.568C4.344 8.808 4.16 9.104 4.016 9.456C3.888 9.792 3.824 10.16 3.824 10.56V16.776C3.824 17.208 3.672 17.528 3.368 17.736C3.064 17.944 2.712 18.048 2.312 18.048C1.928 18.048 1.576 17.944 1.256 17.736C0.952 17.528 0.8 17.208 0.8 16.776V6.24C0.8 5.824 0.944 5.52 1.232 5.328C1.536 5.12 1.872 5.016 2.24 5.016C2.624 5.016 2.96 5.12 3.248 5.328C3.552 5.52 3.704 5.824 3.704 6.24V7.08H3.752C4.088 6.408 4.56 5.872 5.168 5.472C5.776 5.072 6.456 4.872 7.208 4.872ZM16.48 7.368C15.472 7.368 14.712 7.632 14.2 8.16C13.704 8.688 13.456 9.36 13.456 10.176V10.344H19.408V10.104C19.408 9.32 19.184 8.672 18.736 8.16C18.288 7.632 17.536 7.368 16.48 7.368ZM16.528 4.872C17.392 4.872 18.176 5 18.88 5.256C19.584 5.512 20.192 5.88 20.704 6.36C21.216 6.84 21.608 7.432 21.88 8.136C22.168 8.84 22.312 9.648 22.312 10.56V10.608C22.312 11.36 22.16 11.88 21.856 12.168C21.568 12.456 21.04 12.6 20.272 12.6H13.456V12.648C13.456 13.512 13.72 14.216 14.248 14.76C14.792 15.304 15.6 15.576 16.672 15.576C17.344 15.576 17.928 15.528 18.424 15.432C18.936 15.32 19.456 15.144 19.984 14.904C20.304 14.76 20.616 14.744 20.92 14.856C21.224 14.952 21.448 15.168 21.592 15.504C21.736 15.84 21.768 16.168 21.688 16.488C21.608 16.792 21.408 17.024 21.088 17.184C20.48 17.488 19.816 17.72 19.096 17.88C18.376 18.024 17.528 18.096 16.552 18.096C14.632 18.096 13.144 17.576 12.088 16.536C11.032 15.48 10.504 13.904 10.504 11.808V11.184C10.504 9.104 11.04 7.536 12.112 6.48C13.184 5.408 14.656 4.872 16.528 4.872ZM24.7567 5.16C24.9487 5.096 25.1407 5.056 25.3327 5.04C25.5247 5.024 25.7087 5.04 25.8847 5.088C26.0767 5.136 26.2447 5.224 26.3887 5.352C26.5327 5.48 26.6447 5.664 26.7247 5.904L29.7487 14.808H29.7727L32.7967 5.904C32.8767 5.664 32.9807 5.48 33.1087 5.352C33.2527 5.224 33.4127 5.136 33.5887 5.088C33.7647 5.04 33.9487 5.024 34.1407 5.04C34.3327 5.056 34.5247 5.096 34.7167 5.16C35.0847 5.288 35.3567 5.512 35.5328 5.832C35.7247 6.136 35.7327 6.504 35.5567 6.936L31.9327 16.44C31.6927 17.064 31.3727 17.488 30.9727 17.712C30.5887 17.936 30.1647 18.048 29.7007 18.048C29.2367 18.048 28.8047 17.936 28.4047 17.712C28.0207 17.488 27.7087 17.064 27.4687 16.44L23.8447 6.936C23.6687 6.504 23.6847 6.136 23.8927 5.832C24.1007 5.512 24.3887 5.288 24.7567 5.16ZM43.1159 7.368C42.1079 7.368 41.3479 7.632 40.8359 8.16C40.3399 8.688 40.0919 9.36 40.0919 10.176V10.344H46.0439V10.104C46.0439 9.32 45.8199 8.672 45.3719 8.16C44.9239 7.632 44.1719 7.368 43.1159 7.368ZM43.1639 4.872C44.0279 4.872 44.8119 5 45.5159 5.256C46.2199 5.512 46.8279 5.88 47.3399 6.36C47.8519 6.84 48.2439 7.432 48.5159 8.136C48.8039 8.84 48.9479 9.648 48.9479 10.56V10.608C48.9479 11.36 48.7959 11.88 48.4919 12.168C48.2039 12.456 47.6759 12.6 46.9079 12.6H40.0919V12.648C40.0919 13.512 40.3559 14.216 40.8839 14.76C41.4279 15.304 42.2359 15.576 43.3079 15.576C43.9799 15.576 44.5639 15.528 45.0599 15.432C45.5719 15.32 46.0919 15.144 46.6199 14.904C46.9399 14.76 47.2519 14.744 47.5559 14.856C47.8599 14.952 48.0839 15.168 48.2279 15.504C48.3719 15.84 48.4039 16.168 48.3239 16.488C48.2439 16.792 48.0439 17.024 47.7239 17.184C47.1159 17.488 46.4519 17.72 45.7319 17.88C45.0119 18.024 44.1639 18.096 43.1879 18.096C41.2679 18.096 39.7799 17.576 38.7239 16.536C37.6679 15.48 37.1399 13.904 37.1399 11.808V11.184C37.1399 9.104 37.6759 7.536 38.7479 6.48C39.8199 5.408 41.2919 4.872 43.1639 4.872ZM58.1127 4.872C58.6727 4.872 59.1047 4.96 59.4087 5.136C59.6967 5.296 59.8887 5.504 59.9847 5.76C60.0807 6.016 60.0967 6.312 60.0327 6.648C59.9527 7.096 59.7687 7.448 59.4807 7.704C59.2087 7.944 58.8887 8.024 58.5207 7.944C58.3127 7.912 58.1127 7.872 57.9207 7.824C57.7287 7.776 57.5287 7.752 57.3207 7.752C56.9527 7.752 56.6087 7.824 56.2887 7.968C55.9847 8.112 55.7127 8.312 55.4727 8.568C55.2487 8.808 55.0647 9.104 54.9207 9.456C54.7927 9.792 54.7287 10.16 54.7287 10.56V16.776C54.7287 17.208 54.5767 17.528 54.2727 17.736C53.9687 17.944 53.6167 18.048 53.2167 18.048C52.8327 18.048 52.4807 17.944 52.1607 17.736C51.8567 17.528 51.7047 17.208 51.7047 16.776V6.24C51.7047 5.824 51.8487 5.52 52.1367 5.328C52.4407 5.12 52.7767 5.016 53.1447 5.016C53.5287 5.016 53.8647 5.12 54.1527 5.328C54.4567 5.52 54.6087 5.824 54.6087 6.24V7.08H54.6567C54.9927 6.408 55.4647 5.872 56.0727 5.472C56.6807 5.072 57.3607 4.872 58.1127 4.872ZM66.7099 4.872C68.2939 4.872 69.5419 5.12 70.4539 5.616C70.8539 5.84 71.1019 6.104 71.1979 6.408C71.2939 6.712 71.2539 7.048 71.0779 7.416C70.9339 7.72 70.7259 7.928 70.4539 8.04C70.1819 8.136 69.8699 8.104 69.5179 7.944C69.1499 7.768 68.7419 7.632 68.2939 7.536C67.8619 7.44 67.4459 7.392 67.0459 7.392C66.1339 7.392 65.5019 7.504 65.1499 7.728C64.7979 7.952 64.6219 8.216 64.6219 8.52V8.568C64.6219 8.76 64.6459 8.928 64.6939 9.072C64.7419 9.2 64.8459 9.32 65.0059 9.432C65.1819 9.528 65.4299 9.624 65.7499 9.72C66.0699 9.8 66.5099 9.896 67.0699 10.008C68.0299 10.2 68.8219 10.416 69.4459 10.656C70.0699 10.88 70.5659 11.152 70.9339 11.472C71.3019 11.792 71.5579 12.176 71.7019 12.624C71.8459 13.056 71.9179 13.576 71.9179 14.184V14.28C71.9179 14.824 71.7899 15.328 71.5339 15.792C71.2939 16.256 70.9419 16.664 70.4779 17.016C70.0299 17.352 69.4779 17.616 68.8219 17.808C68.1819 18 67.4619 18.096 66.6619 18.096C65.7179 18.096 64.8459 18 64.0459 17.808C63.2459 17.616 62.5419 17.352 61.9339 17.016C61.5979 16.84 61.3979 16.584 61.3339 16.248C61.2699 15.896 61.3179 15.56 61.4779 15.24C61.6539 14.904 61.8939 14.68 62.1979 14.568C62.5019 14.456 62.8299 14.488 63.1819 14.664C63.6939 14.936 64.2459 15.152 64.8379 15.312C65.4459 15.472 66.0459 15.552 66.6379 15.552C67.4699 15.552 68.0459 15.432 68.3659 15.192C68.6859 14.952 68.8459 14.648 68.8459 14.28V14.232C68.8459 14.04 68.8219 13.872 68.7739 13.728C68.7259 13.584 68.6059 13.456 68.4139 13.344C68.2219 13.232 67.9419 13.128 67.5739 13.032C67.2059 12.936 66.7099 12.824 66.0859 12.696C65.2379 12.536 64.5259 12.344 63.9499 12.12C63.3899 11.896 62.9339 11.624 62.5819 11.304C62.2299 10.968 61.9739 10.584 61.8139 10.152C61.6699 9.704 61.5979 9.192 61.5979 8.616V8.52C61.5979 8.04 61.7019 7.584 61.9099 7.152C62.1179 6.704 62.4299 6.312 62.8459 5.976C63.2779 5.64 63.8139 5.376 64.4539 5.184C65.0939 4.976 65.8459 4.872 66.7099 4.872ZM79.7066 7.368C78.6986 7.368 77.9386 7.632 77.4266 8.16C76.9306 8.688 76.6826 9.36 76.6826 10.176V10.344H82.6346V10.104C82.6346 9.32 82.4106 8.672 81.9626 8.16C81.5146 7.632 80.7626 7.368 79.7066 7.368ZM79.7546 4.872C80.6186 4.872 81.4026 5 82.1066 5.256C82.8106 5.512 83.4186 5.88 83.9306 6.36C84.4426 6.84 84.8346 7.432 85.1066 8.136C85.3946 8.84 85.5386 9.648 85.5386 10.56V10.608C85.5386 11.36 85.3866 11.88 85.0826 12.168C84.7946 12.456 84.2666 12.6 83.4986 12.6H76.6826V12.648C76.6826 13.512 76.9466 14.216 77.4746 14.76C78.0186 15.304 78.8266 15.576 79.8986 15.576C80.5706 15.576 81.1546 15.528 81.6506 15.432C82.1626 15.32 82.6826 15.144 83.2106 14.904C83.5306 14.76 83.8426 14.744 84.1466 14.856C84.4506 14.952 84.6746 15.168 84.8186 15.504C84.9626 15.84 84.9946 16.168 84.9146 16.488C84.8346 16.792 84.6346 17.024 84.3146 17.184C83.7066 17.488 83.0426 17.72 82.3226 17.88C81.6026 18.024 80.7546 18.096 79.7786 18.096C77.8586 18.096 76.3706 17.576 75.3146 16.536C74.2586 15.48 73.7306 13.904 73.7306 11.808V11.184C73.7306 9.104 74.2666 7.536 75.3386 6.48C76.4106 5.408 77.8826 4.872 79.7546 4.872ZM92.8793 4.872C93.3913 4.872 93.8473 4.92 94.2473 5.016C94.6473 5.112 94.9913 5.232 95.2793 5.376C95.5833 5.52 95.8313 5.68 96.0233 5.856C96.2153 6.016 96.3593 6.168 96.4553 6.312H96.4793V6.24C96.4793 5.824 96.6233 5.52 96.9113 5.328C97.2153 5.12 97.5593 5.016 97.9433 5.016C98.3113 5.016 98.6393 5.12 98.9273 5.328C99.2313 5.52 99.3833 5.824 99.3833 6.24V17.544C99.3833 19.384 98.8793 20.752 97.8713 21.648C96.8633 22.56 95.2713 23.016 93.0953 23.016C92.3913 23.016 91.7033 22.92 91.0313 22.728C90.3593 22.552 89.7993 22.336 89.3513 22.08C89.0313 21.904 88.8473 21.632 88.7993 21.264C88.7513 20.912 88.8153 20.584 88.9913 20.28C89.1833 19.944 89.4153 19.72 89.6873 19.608C89.9593 19.496 90.2793 19.528 90.6473 19.704C90.9673 19.88 91.3513 20.04 91.7993 20.184C92.2633 20.328 92.7113 20.4 93.1433 20.4C94.2153 20.4 95.0233 20.176 95.5673 19.728C96.1273 19.28 96.4073 18.544 96.4073 17.52V16.032H96.3593C96.0073 16.672 95.5033 17.12 94.8473 17.376C94.1913 17.632 93.4633 17.76 92.6633 17.76C90.9833 17.76 89.7113 17.232 88.8473 16.176C87.9993 15.12 87.5753 13.584 87.5753 11.568V11.088C87.5753 9.04 88.0553 7.496 89.0153 6.456C89.9913 5.4 91.2793 4.872 92.8793 4.872ZM93.3833 7.464C92.4233 7.464 91.7113 7.784 91.2473 8.424C90.7993 9.048 90.5753 9.96 90.5753 11.16V11.496C90.5753 12.744 90.7833 13.672 91.1993 14.28C91.6313 14.888 92.3193 15.192 93.2633 15.192C93.7593 15.192 94.1993 15.112 94.5833 14.952C94.9833 14.776 95.3113 14.544 95.5673 14.256C95.8393 13.952 96.0473 13.608 96.1913 13.224C96.3353 12.824 96.4073 12.4 96.4073 11.952V10.08C96.4073 9.776 96.3433 9.472 96.2153 9.168C96.1033 8.848 95.9193 8.568 95.6633 8.328C95.4233 8.072 95.1113 7.864 94.7273 7.704C94.3593 7.544 93.9113 7.464 93.3833 7.464ZM104.283 5.016C104.667 5.016 105.011 5.12 105.315 5.328C105.635 5.536 105.795 5.856 105.795 6.288V12.576C105.795 13.152 105.859 13.632 105.987 14.016C106.115 14.384 106.291 14.68 106.515 14.904C106.739 15.112 107.003 15.264 107.307 15.36C107.611 15.44 107.939 15.48 108.291 15.48C108.595 15.48 108.907 15.432 109.227 15.336C109.563 15.24 109.867 15.072 110.139 14.832C110.411 14.592 110.635 14.272 110.811 13.872C111.003 13.472 111.099 12.976 111.099 12.384V6.288C111.099 5.856 111.251 5.536 111.555 5.328C111.859 5.12 112.211 5.016 112.611 5.016C112.995 5.016 113.339 5.12 113.643 5.328C113.963 5.536 114.123 5.856 114.123 6.288V16.824C114.123 17.24 113.971 17.552 113.667 17.76C113.379 17.952 113.051 18.048 112.683 18.048C112.315 18.048 111.979 17.952 111.675 17.76C111.387 17.552 111.243 17.24 111.243 16.824V16.32H111.195C111.003 16.64 110.763 16.912 110.475 17.136C110.187 17.36 109.867 17.544 109.515 17.688C109.179 17.832 108.819 17.936 108.435 18C108.067 18.08 107.707 18.12 107.355 18.12C105.963 18.12 104.851 17.712 104.019 16.896C103.187 16.064 102.771 14.84 102.771 13.224V6.288C102.771 5.856 102.923 5.536 103.227 5.328C103.531 5.12 103.883 5.016 104.283 5.016ZM119.211 5.016C119.611 5.016 119.963 5.12 120.267 5.328C120.571 5.536 120.723 5.856 120.723 6.288V16.776C120.723 17.208 120.571 17.528 120.267 17.736C119.963 17.944 119.611 18.048 119.211 18.048C118.827 18.048 118.475 17.944 118.155 17.736C117.851 17.528 117.699 17.208 117.699 16.776V6.288C117.699 5.856 117.851 5.536 118.155 5.328C118.475 5.12 118.827 5.016 119.211 5.016ZM119.211 0.0479994C119.739 0.0479994 120.187 0.224 120.555 0.576C120.923 0.927999 121.107 1.36 121.107 1.872C121.107 2.384 120.923 2.816 120.555 3.168C120.187 3.52 119.739 3.696 119.211 3.696C118.683 3.696 118.235 3.52 117.867 3.168C117.499 2.816 117.315 2.384 117.315 1.872C117.315 1.36 117.499 0.927999 117.867 0.576C118.235 0.224 118.683 0.0479994 119.211 0.0479994ZM129.388 7.464C127.516 7.464 126.58 8.728 126.58 11.256V11.736C126.58 13.032 126.788 13.992 127.204 14.616C127.636 15.224 128.324 15.528 129.268 15.528C129.764 15.528 130.204 15.448 130.588 15.288C130.988 15.112 131.316 14.88 131.572 14.592C131.844 14.288 132.052 13.944 132.196 13.56C132.34 13.16 132.412 12.736 132.412 12.288V10.08C132.412 9.776 132.348 9.472 132.22 9.168C132.108 8.848 131.924 8.568 131.668 8.328C131.428 8.072 131.116 7.864 130.732 7.704C130.364 7.544 129.916 7.464 129.388 7.464ZM133.876 0.0959988C134.276 0.0959988 134.628 0.199999 134.932 0.407999C135.236 0.615999 135.388 0.935999 135.388 1.368V16.824C135.388 17.24 135.236 17.552 134.932 17.76C134.644 17.952 134.316 18.048 133.948 18.048C133.58 18.048 133.252 17.952 132.964 17.76C132.676 17.552 132.532 17.24 132.532 16.824V16.344H132.46C132.108 16.984 131.588 17.44 130.9 17.712C130.212 17.968 129.468 18.096 128.668 18.096C126.988 18.096 125.716 17.568 124.852 16.512C124.004 15.44 123.58 13.872 123.58 11.808V11.184C123.58 10.144 123.708 9.232 123.964 8.448C124.22 7.648 124.58 6.984 125.044 6.456C125.508 5.928 126.06 5.536 126.7 5.28C127.356 5.008 128.084 4.872 128.884 4.872C129.412 4.872 129.868 4.92 130.252 5.016C130.652 5.112 130.988 5.232 131.26 5.376C131.548 5.504 131.78 5.656 131.956 5.832C132.132 5.992 132.268 6.144 132.364 6.288V1.368C132.364 0.935999 132.516 0.615999 132.82 0.407999C133.14 0.199999 133.492 0.0959988 133.876 0.0959988ZM144.175 7.368C143.167 7.368 142.407 7.632 141.895 8.16C141.399 8.688 141.151 9.36 141.151 10.176V10.344H147.103V10.104C147.103 9.32 146.879 8.672 146.431 8.16C145.983 7.632 145.231 7.368 144.175 7.368ZM144.223 4.872C145.087 4.872 145.871 5 146.575 5.256C147.279 5.512 147.887 5.88 148.399 6.36C148.911 6.84 149.303 7.432 149.575 8.136C149.863 8.84 150.007 9.648 150.007 10.56V10.608C150.007 11.36 149.855 11.88 149.551 12.168C149.263 12.456 148.735 12.6 147.967 12.6H141.151V12.648C141.151 13.512 141.415 14.216 141.943 14.76C142.487 15.304 143.295 15.576 144.367 15.576C145.039 15.576 145.623 15.528 146.119 15.432C146.631 15.32 147.151 15.144 147.679 14.904C147.999 14.76 148.311 14.744 148.615 14.856C148.919 14.952 149.143 15.168 149.287 15.504C149.431 15.84 149.463 16.168 149.383 16.488C149.303 16.792 149.103 17.024 148.783 17.184C148.175 17.488 147.511 17.72 146.791 17.88C146.071 18.024 145.223 18.096 144.247 18.096C142.327 18.096 140.839 17.576 139.783 16.536C138.727 15.48 138.199 13.904 138.199 11.808V11.184C138.199 9.104 138.735 7.536 139.807 6.48C140.879 5.408 142.351 4.872 144.223 4.872Z" fill="#6E7882"/>
</svg>
